<?xml version="1.0" encoding="utf-8"?>
<!-- Generator: Adobe Illustrator 21.1.0, SVG Export Plug-In . SVG Version: 6.00 Build 0)  -->
<svg version="1.1" id="Tvar_1_1_" xmlns="http://www.w3.org/2000/svg" xmlns:xlink="http://www.w3.org/1999/xlink" x="0px" y="0px"
	 viewBox="0 0 522 82" style="enable-background:new 0 0 522 82;" xml:space="preserve">
<g id="Tvar_1">
	<g>
		<path style="fill-rule:evenodd;clip-rule:evenodd;fill:#BA2034;" d="M2.5,15.5v56.3h11.3V49h2.5l6.6,22.9h12l-8.8-28.9l8.2-27.4
			h-12l-6.5,22.4h-2.1V15.5H2.5z M41,15.5v56.3h24.6V61H52.3V15.5H41z M68,15.5v42.8c0,2.2,0.2,4.2,0.7,6c0.5,1.8,1.3,3.3,2.4,4.5
			c1.1,1.2,2.6,2.2,4.4,2.8c1.8,0.7,4.1,1,6.8,1s5-0.3,6.8-1c1.8-0.7,3.3-1.6,4.4-2.8c1.1-1.2,1.9-2.7,2.4-4.5
			c0.5-1.8,0.7-3.8,0.7-6V15.5H85.3v42.8c0,0.5,0,0.9-0.1,1.3c-0.1,0.4-0.2,0.8-0.4,1.1c-0.2,0.3-0.5,0.6-0.9,0.8
			c-0.4,0.2-0.9,0.3-1.6,0.3c-0.7,0-1.2-0.1-1.6-0.3c-0.4-0.2-0.7-0.4-0.9-0.8c-0.2-0.3-0.4-0.7-0.4-1.1c-0.1-0.4-0.1-0.8-0.1-1.3
			V15.5H68z M103.9,71.8h26.3v-11h-13.8L130.1,25v-9.5h-25.6v11.1h12.9l-13.4,35.1V71.8z M148.9,71.8V15.5h-11.3v56.3H148.9z
			 M175.1,10.8l5.5-9.8h-8.8l-1.9,4.2L168,1h-8.8l5.5,9.8H175.1z M159.8,69c1.2,1.2,2.7,2.1,4.5,2.7c1.8,0.6,4.1,0.9,6.7,0.9
			c5,0,8.7-1.2,11-3.6c2.3-2.4,3.5-6,3.4-10.7c-0.1-2.4-0.2-4.6-0.5-6.4c-0.3-1.9-0.8-3.6-1.5-5.1c-0.7-1.5-1.7-3-3-4.2
			c-1.3-1.3-2.9-2.5-4.9-3.8l-4.4-2.7c-0.6-0.3-1.1-0.8-1.4-1.2c-0.4-0.5-0.6-1-0.9-1.5c-0.2-0.5-0.4-1.1-0.4-1.6
			c-0.1-0.6-0.1-1.1-0.1-1.6v-0.9c0-1.1,0.2-2,0.7-2.6c0.4-0.6,1.1-0.9,2.2-0.9c1.1,0,1.8,0.3,2.2,0.9c0.4,0.6,0.6,1.4,0.6,2.5
			l0,5.2h11.2v-5.1c0-2.6-0.3-4.7-0.8-6.6c-0.6-1.8-1.4-3.3-2.5-4.5c-1.1-1.2-2.6-2-4.3-2.6c-1.7-0.5-3.8-0.8-6.1-0.8
			c-2.3,0-4.3,0.3-6.1,0.8c-1.8,0.5-3.3,1.3-4.5,2.5c-1.2,1.1-2.1,2.6-2.8,4.4c-0.6,1.8-0.9,4-0.9,6.6v1.2c0,1.8,0.1,3.5,0.2,4.9
			c0.2,1.4,0.5,2.7,1.1,4c0.6,1.2,1.5,2.5,2.7,3.7c1.2,1.2,2.8,2.5,4.8,4l5.3,3.6c0.7,0.5,1.3,1,1.7,1.5c0.4,0.5,0.7,1.1,0.9,1.7
			c0.2,0.6,0.3,1.3,0.3,2.1c0,0.8,0.1,1.6,0.1,2.6c0,1.1-0.2,1.9-0.7,2.5c-0.4,0.6-1.3,0.9-2.6,0.9c-1.2,0-2-0.3-2.4-0.9
			s-0.7-1.6-0.7-2.8v-4.8h-11.3v4.8c0,2.5,0.3,4.6,0.8,6.5C157.8,66.3,158.7,67.8,159.8,69z M209.2,71.8V26.6h8.6V15.5h-28.5v11.1
			h8.6v45.3H209.2z M239.4,10.8l5.5-9.8h-8.8l-1.9,4.2L232.3,1h-8.8l5.5,9.8H239.4z M247.2,60.8H233v-12h11.6v-11H233V26.6h14.1
			V15.5h-25.4v56.3h25.4V60.8z M297.9,15.5h-11.3l-4.8,40.5l-4.8-40.5h-11.4l8.8,56.4h14.8L297.9,15.5z M342.7,34.1v-4.4
			c0-2.2-0.2-4.2-0.7-6s-1.3-3.4-2.4-4.8c-1.1-1.3-2.6-2.4-4.4-3.2c-1.8-0.8-4.1-1.1-6.8-1.1l0,0c-2.7,0-5,0.4-6.8,1.2
			c-1.8,0.8-3.3,1.8-4.4,3.2c-1.1,1.3-1.9,2.9-2.4,4.8c-0.5,1.9-0.7,3.9-0.7,6.1v27.5c0,2.2,0.2,4.2,0.7,6.1
			c0.5,1.9,1.3,3.5,2.4,4.8s2.6,2.4,4.4,3.2c1.8,0.8,4.1,1.1,6.8,1.1v0c2.7,0,5-0.4,6.8-1.1c1.8-0.7,3.3-1.8,4.4-3.1
			c1.1-1.3,1.9-2.9,2.4-4.7c0.5-1.8,0.7-3.8,0.7-6v-4.6h-11.3v4.5c0,0.5,0,0.9-0.1,1.4c-0.1,0.5-0.2,0.9-0.5,1.3
			c-0.2,0.4-0.5,0.7-0.9,1c-0.4,0.3-0.9,0.4-1.5,0.4c-0.7,0-1.2-0.1-1.6-0.4c-0.4-0.3-0.7-0.6-0.9-1c-0.2-0.4-0.4-0.9-0.4-1.4
			c-0.1-0.5-0.1-1-0.1-1.4V29.9c0-0.5,0-0.9,0.1-1.4c0.1-0.5,0.2-1,0.4-1.4c0.2-0.4,0.5-0.8,0.9-1c0.4-0.3,0.9-0.4,1.6-0.4
			c0.6,0,1.2,0.1,1.6,0.4c0.4,0.3,0.7,0.6,0.9,1c0.2,0.4,0.4,0.8,0.4,1.3c0.1,0.5,0.1,0.9,0.1,1.3v4.4H342.7z M374.2,26.6V15.5
			h-25.4v56.3h25.4v-11h-14.1v-12h11.6v-11h-11.6V26.6H374.2z M380.8,15.5v56.3h11.3l-0.4-29.3l8.7,29.3h12.1V15.5h-11.3l0.3,27.3
			L394,15.5H380.8z M436.4,71.8V26.6h8.6V15.5h-28.5v11.1h8.6v45.3H436.4z M476.7,42.5c0.9-1.8,1.4-3.7,1.4-5.9V30
			c0-5.1-1.2-8.8-3.6-11.1c-2.4-2.3-6-3.4-10.8-3.4H449v56.3h11.3V51.1h1.3c0.5,0,1,0,1.5,0.2c0.5,0.2,0.9,0.5,1.3,0.9
			c0.4,0.5,0.7,1.1,1,1.9c0.3,0.8,0.4,1.9,0.5,3.1l0.5,7.6c0.1,0.9,0.2,1.7,0.4,2.5c0.2,0.8,0.4,1.5,0.6,2.1
			c0.2,0.6,0.4,1.1,0.6,1.6c0.2,0.4,0.3,0.7,0.4,0.8h11.6c-0.2-0.4-0.4-0.9-0.7-1.4c-0.2-0.5-0.4-1-0.7-1.6
			c-0.2-0.6-0.4-1.2-0.6-1.9c-0.2-0.7-0.3-1.5-0.3-2.3l-0.5-7.6c-0.1-1.6-0.2-2.9-0.4-3.9c-0.2-1.1-0.4-1.9-0.7-2.7
			c-0.3-0.7-0.7-1.4-1.2-1.9c-0.5-0.5-1-1-1.7-1.5C474.5,45.8,475.7,44.2,476.7,42.5z M466.8,36.5c0,1-0.2,1.9-0.7,2.6
			c-0.5,0.7-1.3,1-2.6,1h-3.3V26.6h3.3c1.2,0,2.1,0.3,2.5,0.9c0.5,0.6,0.7,1.4,0.7,2.5V36.5z M486.8,15.5v42.8c0,2.2,0.2,4.2,0.7,6
			c0.5,1.8,1.3,3.3,2.4,4.5c1.1,1.2,2.6,2.2,4.4,2.8c1.8,0.7,4.1,1,6.8,1s5-0.3,6.8-1c1.8-0.7,3.3-1.6,4.4-2.8
			c1.1-1.2,1.9-2.7,2.4-4.5c0.5-1.8,0.7-3.8,0.7-6V15.5h-11.2v42.8c0,0.5,0,0.9-0.1,1.3c-0.1,0.4-0.2,0.8-0.4,1.1
			c-0.2,0.3-0.5,0.6-0.9,0.8c-0.4,0.2-0.9,0.3-1.6,0.3c-0.7,0-1.2-0.1-1.6-0.3c-0.4-0.2-0.7-0.4-0.9-0.8c-0.2-0.3-0.4-0.7-0.4-1.1
			c-0.1-0.4-0.1-0.8-0.1-1.3V15.5H486.8z M1,81h519.8v-2.2H1V81z M152.6,3.7H1v2.2h151.6V3.7z M219.7,3.7h-36.1v2.2h36.1V3.7z
			 M247.8,3.7v2.2h273V3.7H247.8z"/>
	</g>
</g>
</svg>
